<?xml version="1.0" standalone="no"?>
<!DOCTYPE svg PUBLIC "-//W3C//DTD SVG 20010904//EN"
 "http://www.w3.org/TR/2001/REC-SVG-20010904/DTD/svg10.dtd">
<svg version="1.0" xmlns="http://www.w3.org/2000/svg"
 width="766.000000pt" height="680.000000pt" viewBox="0 0 766.000000 680.000000"
 preserveAspectRatio="xMidYMid meet">

<g transform="translate(0.000000,680.000000) scale(0.100000,-0.100000)"
fill="#000000" stroke="none">
<path d="M3823 6045 c0 -8 4 -15 9 -15 4 0 8 7 8 15 0 8 -4 15 -8 15 -5 0 -9
-7 -9 -15z"/>
<path d="M3792 5993 c-14 -3 -22 -10 -18 -18 7 -19 -29 -46 -134 -99 -52 -27
-102 -55 -110 -63 -12 -13 -9 -12 17 1 35 18 47 20 39 8 -2 -4 11 -6 30 -4 19
2 34 7 34 11 0 4 16 5 36 3 21 -3 31 -8 24 -12 -6 -4 -23 -5 -38 -3 -22 4 -24
2 -12 -7 13 -10 13 -11 -2 -6 -21 6 -128 -14 -128 -24 0 -4 7 -10 15 -14 8 -3
15 -11 15 -18 0 -10 -2 -10 -8 -1 -4 7 -24 19 -44 27 -34 15 -37 14 -36 -2 0
-9 -5 -30 -12 -47 -11 -24 -14 -27 -18 -11 -3 16 -8 14 -38 -15 -20 -19 -34
-27 -34 -19 0 11 -3 11 -12 2 -10 -10 -10 -15 2 -23 13 -9 12 -10 -2 -5 -9 2
-32 1 -50 -5 -18 -5 -46 -12 -63 -15 -16 -2 -38 -7 -47 -10 -19 -6 -29 18 -24
61 3 20 19 43 52 73 83 75 177 149 224 177 45 27 21 25 -32 -1 -15 -8 -31 -15
-35 -15 -27 -4 -125 -84 -213 -175 -91 -95 -114 -112 -62 -46 18 23 18 25 -2
88 -12 35 -25 64 -30 64 -4 0 -5 -11 -2 -24 5 -20 3 -23 -13 -19 -15 4 -22 -3
-30 -30 -16 -47 -30 -57 -61 -41 -14 8 -21 14 -16 14 6 0 1 6 -9 14 -19 14
-63 6 -92 -16 -7 -5 -17 -7 -23 -3 -6 4 -13 -7 -17 -25 -6 -35 -28 -49 -46
-31 -15 15 -28 14 -24 -1 1 -7 -4 -12 -12 -10 -7 1 -20 -3 -28 -10 -8 -6 -33
-11 -55 -9 -26 1 -37 -2 -33 -9 3 -5 13 -10 21 -10 21 0 17 -43 -6 -68 -26
-28 -40 -28 -41 1 -1 12 -2 36 -2 53 -3 42 -44 75 -132 103 -70 22 -95 38 -95
63 0 9 -2 10 -8 2 -4 -7 -18 -14 -32 -15 -16 -3 -26 -12 -30 -28 -5 -22 -7
-23 -22 -8 -9 10 -21 17 -27 17 -10 0 -16 27 -12 57 1 9 -6 10 -29 2 -16 -6
-30 -17 -30 -25 0 -8 -6 -14 -14 -14 -15 0 -30 27 -27 48 1 6 -3 12 -9 12 -19
0 -25 -5 -22 -17 3 -16 3 -16 -37 -2 -17 6 -31 17 -31 24 0 8 -5 17 -12 21 -6
4 -8 3 -5 -3 4 -6 0 -14 -9 -17 -8 -3 -12 -2 -9 4 4 6 0 17 -7 25 -7 8 -19 21
-26 30 -7 8 -17 13 -23 10 -5 -4 -9 -2 -9 2 0 5 -17 8 -37 7 -21 -1 -41 2 -44
8 -4 6 -24 12 -45 13 -22 2 -55 6 -74 10 -30 6 -27 2 28 -28 85 -48 124 -78
213 -169 83 -85 117 -141 162 -262 84 -232 79 -211 75 -328 -2 -82 0 -105 8
-93 6 8 40 34 75 56 75 48 67 39 -64 -70 -59 -49 -106 -81 -120 -81 -13 0 -27
-4 -33 -9 -5 -5 -18 -11 -29 -13 -11 -1 -31 -13 -44 -25 -14 -12 -29 -19 -33
-16 -5 3 -12 -4 -15 -16 -3 -12 -9 -21 -14 -21 -5 0 -9 -8 -10 -17 0 -11 -3
-13 -6 -5 -6 15 -37 -27 -83 -112 -19 -36 -27 -61 -21 -65 6 -4 0 -18 -15 -36
-25 -29 -26 -29 -10 -3 21 36 20 45 -2 25 -10 -10 -22 -14 -25 -10 -4 3 -7 -3
-7 -15 0 -12 -5 -22 -10 -22 -6 0 -16 -11 -22 -25 -6 -14 -19 -25 -29 -25 -25
0 -45 73 -30 107 15 32 14 35 -6 32 -10 -1 -26 1 -35 5 -10 5 -23 6 -30 4 -7
-3 -18 2 -24 11 -10 13 -13 13 -29 -2 -11 -11 -25 -15 -41 -11 -14 4 -24 2
-24 -5 0 -6 -9 -11 -19 -11 -15 0 -18 -5 -13 -22 5 -18 7 -19 10 -6 6 30 30
29 34 -2 2 -16 2 -29 -1 -28 -22 2 -31 -5 -31 -24 0 -19 -2 -20 -10 -8 -9 13
-10 13 -10 0 0 -38 12 -58 33 -54 18 3 17 2 -4 -7 -23 -11 -25 -15 -21 -68 2
-44 -1 -63 -18 -89 -21 -34 -86 -69 -147 -79 -19 -3 -30 -10 -26 -16 4 -7 -1
-8 -13 -3 -178 70 -392 124 -442 111 -15 -4 -21 -2 -17 5 3 5 -6 15 -20 22
-22 10 -28 9 -36 -3 -7 -12 -9 -12 -9 1 0 12 -2 12 -9 2 -7 -11 -13 -9 -31 10
-13 12 -20 17 -16 11 8 -15 -6 -11 -86 25 -32 14 -56 27 -54 30 2 2 15 -1 28
-8 22 -11 22 -10 4 4 -11 9 -25 16 -31 16 -37 0 -134 78 -121 98 7 12 -30 60
-39 50 -4 -4 -11 -42 -16 -84 -7 -68 -6 -82 10 -108 10 -17 22 -58 26 -91 4
-34 18 -78 31 -101 15 -25 24 -57 24 -81 0 -22 11 -65 23 -94 13 -30 32 -74
43 -98 10 -24 30 -59 45 -78 16 -19 35 -56 44 -83 11 -34 33 -65 75 -106 47
-46 60 -65 60 -89 0 -16 7 -43 15 -59 8 -15 15 -41 15 -58 0 -16 18 -62 40
-102 22 -40 40 -86 41 -102 0 -16 6 -43 12 -59 27 -70 131 -226 199 -300 41
-45 88 -108 105 -141 l31 -59 -19 -35 c-19 -37 -26 -100 -10 -100 5 0 11 6 14
13 3 8 9 6 20 -8 11 -15 27 -20 64 -20 38 0 61 -8 113 -40 36 -22 85 -48 110
-58 53 -21 193 -50 235 -49 101 4 142 0 165 -14 39 -25 90 -83 89 -102 -1 -15
-2 -15 -6 0 -2 10 -9 18 -14 18 -6 0 -7 -4 -4 -10 3 -5 -6 -21 -22 -34 -31
-27 -30 -30 10 -40 26 -6 28 -5 22 16 l-6 23 14 -23 c7 -13 24 -29 37 -35 13
-7 34 -32 47 -57 13 -25 31 -51 40 -57 118 -89 147 -141 168 -303 23 -175 61
-374 96 -495 64 -229 189 -596 209 -618 11 -12 62 117 147 372 88 265 126 354
151 349 11 -2 19 -18 24 -48 8 -46 44 -90 74 -90 25 0 74 30 74 45 0 8 5 15
10 15 6 0 10 23 8 57 -2 62 11 96 43 113 16 9 30 4 81 -29 47 -32 70 -41 104
-41 44 0 61 -12 56 -41 -2 -9 4 -22 13 -29 8 -7 15 -18 15 -26 0 -18 32 -84
41 -84 4 0 15 21 25 48 9 26 26 57 37 69 10 12 16 26 13 31 -10 17 17 29 79
35 33 3 72 9 88 13 23 5 27 3 27 -16 0 -13 -8 -29 -17 -36 -15 -11 -15 -13 -3
-14 9 0 23 -20 33 -50 18 -50 16 -70 -6 -70 -26 -1 -67 -49 -67 -78 0 -34 44
-79 98 -101 18 -7 32 -17 32 -21 0 -5 3 -15 6 -24 4 -11 0 -16 -12 -16 -17 0
-17 -2 3 -22 55 -58 72 -79 78 -98 9 -28 20 -25 34 9 7 16 31 47 53 70 23 22
36 41 30 41 -7 0 -12 13 -12 29 0 23 6 31 33 42 17 7 49 26 69 42 32 24 37 33
31 55 -6 27 -49 71 -69 72 -6 0 -16 6 -22 13 -13 16 27 106 48 107 12 1 11 4
-4 15 -10 8 -20 30 -22 50 -3 29 0 35 16 35 11 0 34 -9 52 -20 18 -11 49 -20
68 -20 44 0 80 -23 73 -48 -2 -10 5 -26 16 -36 12 -11 21 -25 21 -31 0 -7 7
-30 16 -51 l17 -39 18 40 c10 22 19 47 19 56 0 9 9 24 20 34 15 14 17 21 9 32
-21 24 15 50 78 56 34 4 68 14 84 26 70 52 138 0 124 -93 -6 -39 -4 -46 21
-69 15 -14 43 -28 63 -32 30 -6 39 -3 58 20 15 17 23 39 23 64 0 22 6 44 15
51 19 16 40 -19 89 -154 22 -58 42 -103 47 -101 4 3 5 -3 3 -12 -8 -32 149
-473 168 -473 6 0 8 7 4 15 -3 8 -2 15 3 15 18 0 166 443 226 678 20 81 60
302 75 416 6 49 20 106 31 127 10 21 19 53 19 72 0 43 29 71 66 64 48 -9 71
10 78 63 4 26 15 58 25 71 10 13 32 49 49 80 22 37 45 62 72 78 22 12 40 26
40 31 0 16 71 30 92 19 10 -6 27 -8 37 -4 10 3 24 -1 31 -10 17 -20 43 -19 64
4 10 10 38 22 64 26 50 7 207 67 257 97 17 10 44 18 60 18 17 0 41 7 55 15 14
8 35 19 48 24 26 12 27 22 6 81 -16 45 -16 45 19 120 19 41 50 91 69 110 82
86 195 264 233 368 7 20 29 68 49 105 20 38 36 76 36 86 0 10 6 37 14 62 8 24
17 56 20 71 3 15 28 52 54 82 32 36 54 74 66 112 10 32 33 78 52 102 18 24 40
64 49 90 9 26 25 64 36 85 11 21 23 61 26 90 4 29 17 75 30 102 12 28 23 69
23 92 0 25 8 56 20 75 11 18 20 38 20 43 0 6 -5 3 -10 -7 -6 -9 -18 -14 -29
-11 -14 3 -19 0 -18 -14 2 -15 -7 -19 -48 -24 l-50 -6 45 -1 45 -2 -30 -20
c-16 -11 -44 -20 -60 -20 -19 0 -38 -8 -48 -21 -11 -12 -25 -18 -33 -15 -9 3
-24 6 -35 6 -10 0 -19 5 -19 10 0 6 11 10 25 10 14 0 28 7 31 15 4 8 10 12 15
9 5 -3 9 0 9 5 0 6 -8 11 -17 11 -15 0 -16 2 -3 10 10 6 17 5 23 -5 8 -15 74
-32 83 -22 4 3 -12 11 -35 17 -23 6 -41 14 -41 18 0 11 100 73 100 62 0 -13
27 -13 35 0 3 5 0 7 -8 4 -21 -8 -31 14 -15 33 11 14 11 16 -2 8 -8 -5 -31
-22 -51 -37 -41 -33 -258 -126 -239 -103 18 21 1 20 -90 -8 -42 -13 -81 -22
-88 -19 -7 2 -12 -3 -12 -12 0 -11 -9 -16 -27 -15 -27 0 -27 1 -5 9 12 5 22
12 22 14 0 7 -80 -18 -220 -66 -128 -44 -174 -56 -150 -39 12 8 10 10 -10 9
-14 -1 -46 -1 -71 0 -39 2 -48 6 -59 30 -14 31 -21 147 -10 177 6 15 1 24 -19
37 -17 12 -20 18 -10 18 8 0 20 -5 25 -10 7 -7 9 -1 6 20 -2 16 -8 30 -13 30
-5 0 -9 9 -9 19 0 11 -5 21 -11 23 -5 2 -11 20 -12 40 -2 30 -6 37 -22 37 -40
1 -54 4 -49 13 3 4 1 8 -5 8 -5 0 -13 -5 -17 -11 -3 -6 -14 -9 -23 -6 -10 2
-26 -2 -35 -9 -10 -7 -24 -10 -31 -8 -9 4 -12 -1 -8 -14 7 -29 -61 -41 -90
-15 -14 12 -18 13 -12 3 18 -32 -27 14 -72 72 -24 32 -51 58 -59 58 -8 0 -13
4 -10 9 9 14 -34 101 -49 101 -8 0 -15 4 -15 8 0 5 -7 9 -15 10 -8 1 -22 3
-30 4 -8 1 -15 7 -15 13 0 6 -6 12 -12 13 -64 6 -111 33 -101 58 4 10 -2 13
-18 12 -16 -2 -23 2 -21 10 1 8 -2 11 -8 7 -6 -4 -21 3 -33 14 -12 11 -38 35
-57 52 l-35 31 35 -23 c29 -20 79 -49 84 -49 0 0 0 39 -2 86 -6 159 41 292
116 328 28 14 33 21 28 40 -4 16 1 33 15 51 12 15 24 47 27 73 4 43 11 54 89
129 46 46 112 99 148 120 62 36 77 57 32 46 -12 -4 -31 -12 -42 -20 -11 -7
-34 -13 -52 -13 -18 0 -33 -4 -33 -10 0 -5 -19 -14 -42 -21 -24 -6 -52 -15
-63 -19 -11 -4 -40 -13 -65 -20 -25 -7 -69 -25 -98 -40 -46 -24 -58 -26 -86
-18 -27 9 -38 7 -56 -5 -17 -12 -28 -13 -42 -6 -12 7 -18 6 -18 -2 0 -6 -7 -9
-15 -5 -11 4 -15 -2 -15 -22 0 -49 -12 -56 -101 -59 -45 -1 -83 -4 -86 -6 -2
-2 -6 -21 -8 -42 -7 -49 -11 -54 -17 -15 -3 16 -1 30 4 30 5 0 6 5 3 10 -3 6
-17 10 -30 10 -12 0 -25 6 -28 14 -3 7 -29 19 -59 26 -29 7 -61 19 -70 27 -15
14 -20 12 -43 -13 -22 -24 -29 -26 -45 -16 -16 10 -18 9 -13 -5 6 -14 -1 -15
-53 -10 -32 3 -54 3 -48 -1 6 -4 14 -17 18 -30 6 -17 3 -24 -16 -31 -13 -5
-27 -6 -32 -3 -5 3 -22 6 -37 7 -21 1 -26 -2 -21 -14 3 -9 -21 16 -54 54 -34
39 -81 87 -105 108 -24 21 -57 50 -74 66 -16 15 -42 36 -57 45 -26 17 -129 58
-134 53 -2 -1 31 -20 71 -41 117 -60 240 -188 286 -297 6 -14 1 -15 -42 -8
-27 4 -55 11 -61 16 -7 4 -15 8 -18 9 -3 0 -24 6 -46 12 -23 7 -48 11 -55 9
-8 -2 -11 -2 -6 0 4 3 7 10 7 15 0 6 -3 8 -7 5 -3 -4 -21 5 -40 19 -30 23 -35
24 -49 10 -17 -18 -28 -21 -19 -6 3 5 -1 20 -10 34 -11 16 -13 26 -6 31 6 3
11 10 11 15 0 13 -49 -9 -79 -34 l-24 -21 12 23 c6 12 16 22 21 22 6 0 10 4
10 9 0 5 -19 12 -42 16 -24 4 -50 12 -58 17 -10 6 -4 8 20 4 33 -6 34 -6 15
12 -11 9 -46 31 -78 47 -32 17 -69 42 -84 57 -22 23 -24 30 -13 43 11 13 9 15
-11 15 -13 0 -33 2 -44 4 -11 2 -30 2 -43 -1z m18 -81 c0 -14 -32 -40 -63 -51
-20 -8 -26 -8 -22 0 4 5 18 14 31 19 13 5 24 13 23 17 -3 17 2 23 16 23 8 0
15 -4 15 -8z m77 -6 c-6 -16 12 -26 46 -26 16 0 18 -3 10 -11 -15 -15 -64 4
-81 31 -11 18 -10 20 9 20 14 0 19 -5 16 -14z m-42 -16 c3 -5 -3 -10 -14 -10
-12 0 -21 5 -21 10 0 6 6 10 14 10 8 0 18 -4 21 -10z m-222 -57 c-7 -2 -19 -2
-25 0 -7 3 -2 5 12 5 14 0 19 -2 13 -5z m379 -9 c-18 -8 -38 -11 -45 -7 -8 5
-1 10 18 14 50 11 62 8 27 -7z m-137 -24 c3 -6 -1 -7 -9 -4 -18 7 -21 14 -7
14 6 0 13 -4 16 -10z m-821 -85 c3 -8 1 -15 -4 -15 -6 0 -10 7 -10 15 0 8 2
15 4 15 2 0 6 -7 10 -15z m1165 -49 c9 -10 8 -16 -3 -25 -12 -10 -13 -8 -9 9
5 19 4 20 -21 9 -21 -10 -29 -10 -39 0 -9 10 -8 11 5 6 9 -4 25 -2 35 4 10 6
19 11 19 11 1 0 7 -6 13 -14z m-694 -14 c-3 -3 -11 0 -18 7 -9 10 -8 11 6 5
10 -3 15 -9 12 -12z m-455 -42 c-6 -11 -13 -20 -16 -20 -2 0 0 9 6 20 6 11 13
20 16 20 2 0 0 -9 -6 -20z m250 16 c0 -2 -7 -7 -16 -10 -8 -3 -12 -2 -9 4 6
10 25 14 25 6z m640 -27 c37 -13 104 -59 96 -66 -2 -3 -22 9 -45 25 -50 36
-142 57 -211 48 -60 -8 -89 -20 -150 -60 -25 -16 -39 -22 -31 -12 23 27 92 64
150 79 56 14 126 9 191 -14z m-690 6 c0 -2 -28 -13 -62 -24 -74 -23 -165 -58
-266 -101 -40 -17 -77 -28 -82 -25 -6 3 -10 -2 -11 -12 0 -10 -3 -13 -6 -6 -2
7 -4 15 -3 19 1 4 -4 11 -12 16 -8 6 -1 7 23 4 25 -5 40 -2 48 8 7 8 34 19 60
25 47 10 114 34 195 70 58 26 116 39 116 26z m1215 -15 c17 -4 32 -7 35 -8 19
-4 81 -34 78 -37 -5 -5 -179 53 -188 62 -3 3 6 2 20 -2 14 -5 39 -11 55 -15z
m-1442 -25 c-3 -9 -8 -14 -10 -11 -3 3 -2 9 2 15 9 16 15 13 8 -4z m908 -16
c52 -26 50 -33 -3 -9 -64 29 -156 27 -222 -5 -42 -21 -47 -22 -26 -5 63 51
173 59 251 19z m739 -31 c0 -5 3 -7 8 -7 4 1 10 0 15 -1 12 -4 26 -7 37 -9 12
-1 13 -21 1 -21 -5 0 -33 11 -62 24 -42 18 -48 24 -27 22 16 0 28 -4 28 -8z
m104 -44 c4 -10 1 -14 -6 -12 -15 5 -23 28 -10 28 5 0 13 -7 16 -16z m61 -1
c-11 -3 -27 -10 -35 -17 -13 -10 -13 -9 -1 7 7 9 23 16 35 16 20 -1 20 -2 1
-6z m62 -59 c17 -13 16 -13 -6 -6 -13 5 -28 20 -33 33 -7 22 -7 23 6 6 8 -10
23 -25 33 -33z m-2117 12 c-18 -18 -171 -98 -176 -93 -2 2 7 10 21 17 14 7 25
17 25 22 0 5 4 7 9 4 5 -3 12 1 15 10 3 8 10 12 16 9 5 -3 10 -1 10 5 0 6 3 9
8 7 4 -3 23 3 42 14 43 22 49 23 30 5z m1033 -6 c-3 -12 -8 -19 -11 -16 -5 6
5 36 12 36 2 0 2 -9 -1 -20z m1208 -72 c13 -10 -4 -4 -38 12 -35 17 -63 32
-63 35 0 6 74 -28 101 -47z m-1454 -60 c-2 -13 -4 -5 -4 17 -1 22 1 32 4 23 2
-10 2 -28 0 -40z m-996 22 c-22 -19 -41 -26 -41 -15 0 5 51 34 60 34 3 0 -6
-9 -19 -19z m1506 -47 c-3 -10 -5 -2 -5 17 0 19 2 27 5 18 2 -10 2 -26 0 -35z
m1046 28 c15 -8 27 -18 27 -22 0 -5 -16 1 -35 12 -19 12 -35 23 -35 26 0 2 3
3 8 1 4 -2 19 -10 35 -17z m-2613 -15 c0 -7 -82 -57 -86 -53 -2 2 13 16 33 30
36 24 53 32 53 23z m1617 -38 c-3 -7 -5 -2 -5 12 0 14 2 19 5 13 2 -7 2 -19 0
-25z m-66 -21 c-10 -9 -11 -8 -5 6 3 10 9 15 12 12 3 -3 0 -11 -7 -18z m-244
-49 c-3 -8 -6 -5 -6 6 -1 11 2 17 5 13 3 -3 4 -12 1 -19z m574 -54 c30 -9 59
-20 65 -25 6 -5 15 -5 20 -1 4 4 3 -1 -5 -10 -11 -15 -7 -19 46 -34 69 -20
331 -146 315 -152 -7 -2 -35 10 -64 26 -72 41 -251 113 -375 152 -107 33 -130
46 -65 37 20 -3 29 -3 20 -1 -10 3 -18 10 -18 15 0 11 -3 12 61 -7z m-1057 -3
c23 -9 12 -13 -136 -60 -96 -30 -325 -124 -341 -140 -4 -4 17 -11 47 -14 65
-7 104 -30 122 -74 27 -64 9 -145 -30 -130 -10 4 -16 1 -16 -8 0 -14 -18 -20
-48 -16 -8 1 -20 -3 -29 -10 -9 -8 -38 -12 -77 -11 -58 2 -60 2 -38 -13 20
-15 22 -24 22 -112 0 -80 3 -98 18 -109 16 -12 15 -13 -5 -14 -13 0 -23 6 -23
13 0 8 -11 24 -25 37 -14 13 -25 18 -25 12 0 -7 6 -12 13 -13 6 0 -2 -7 -20
-15 -17 -7 -34 -18 -38 -24 -3 -5 -14 -10 -23 -10 -13 0 -13 2 4 14 18 13 19
30 22 222 3 225 1 250 -26 257 -9 3 17 5 58 6 70 1 82 5 185 57 61 31 98 53
83 50 -16 -4 -28 -2 -28 3 0 5 13 11 29 13 17 2 28 1 25 -4 -7 -11 -6 -11 51
12 28 10 43 19 35 20 -12 0 -11 4 4 15 13 10 23 12 30 5 15 -15 26 -12 20 5
-4 8 -2 15 2 16 30 2 60 11 68 19 12 12 62 12 90 1z m416 -14 c13 -5 13 -6 -1
-6 -8 -1 -24 6 -35 15 -19 15 -19 15 1 6 11 -5 27 -12 35 -15z m123 6 c-7 -2
-19 -2 -25 0 -7 3 -2 5 12 5 14 0 19 -2 13 -5z m-15 -20 c-15 -2 -42 -2 -60 0
-18 2 -6 4 27 4 33 0 48 -2 33 -4z m657 -13 c3 -5 -1 -10 -9 -10 -9 0 -16 5
-16 10 0 6 4 10 9 10 6 0 13 -4 16 -10z m-677 -7 c-10 -2 -26 -2 -35 0 -10 3
-2 5 17 5 19 0 27 -2 18 -5z m-738 -13 c0 -5 -5 -10 -11 -10 -5 0 -7 5 -4 10
3 6 8 10 11 10 2 0 4 -4 4 -10z m758 -47 c-21 -2 -55 -2 -75 0 -21 2 -4 4 37
4 41 0 58 -2 38 -4z m-1553 -42 c-3 -2 -17 -6 -32 -7 -20 -2 -23 0 -14 6 15 8
54 10 46 1z m3150 -23 c7 -8 5 -9 -7 -5 -9 3 -33 9 -52 13 -20 3 -38 10 -41
14 -7 12 88 -9 100 -22z m-3050 12 c14 -7 8 -8 -20 -3 -22 3 -42 7 -44 9 -9 8
45 2 64 -6z m-205 -7 c0 -5 -20 -21 -45 -37 -48 -29 -114 -103 -116 -127 0
-10 -2 -11 -6 -2 -9 23 39 84 100 129 62 46 67 49 67 37z m3021 -9 c-19 -8
-57 -31 -85 -51 -33 -23 -44 -28 -31 -13 24 27 114 80 135 80 8 -1 0 -7 -19
-16z m315 -49 c64 -55 101 -127 109 -210 4 -42 2 -54 -4 -40 -5 11 -10 32 -10
46 -2 62 -34 124 -98 187 -74 73 -73 81 3 17z m-3020 4 c3 -6 -5 -3 -20 6 -14
10 -26 19 -26 22 0 7 39 -17 46 -28z m-229 15 c-3 -3 -12 -4 -19 -1 -8 3 -5 6
6 6 11 1 17 -2 13 -5z m80 0 c-3 -3 -12 -4 -19 -1 -8 3 -5 6 6 6 11 1 17 -2
13 -5z m2930 0 c-3 -3 -12 -4 -19 -1 -8 3 -5 6 6 6 11 1 17 -2 13 -5z m-2019
-18 c15 -8 46 -34 68 -58 56 -58 76 -124 83 -269 5 -96 9 -121 25 -138 17 -19
17 -21 2 -21 -9 0 -26 9 -38 20 -25 23 -51 26 -67 6 -9 -11 -9 -15 1 -19 7 -3
-2 -6 -21 -6 -30 -1 -33 1 -18 12 14 9 19 33 23 102 3 55 11 99 20 113 l15 23
-53 -2 c-29 -1 -83 2 -120 6 -38 4 -68 5 -68 2 0 -16 13 -36 20 -32 15 9 18
-8 21 -105 2 -84 5 -96 23 -107 12 -7 15 -12 8 -13 -7 0 -29 11 -49 25 -38 25
-67 21 -80 -11 -3 -8 -15 -14 -27 -13 -11 0 -15 3 -8 6 25 10 36 50 39 147 1
55 6 102 10 105 5 3 8 22 9 43 1 46 45 115 104 162 25 20 46 36 48 36 2 0 15
-6 30 -14z m541 -3 c11 -10 25 -37 30 -60 10 -46 1 -57 -16 -20 -8 17 -20 23
-54 25 -24 1 -46 8 -50 14 -4 6 -12 9 -19 6 -10 -3 -13 -48 -11 -197 2 -193 8
-234 33 -244 7 -3 -5 -6 -27 -6 -24 0 -35 3 -27 7 9 6 6 14 -12 31 -21 20 -24
20 -30 6 -3 -10 -12 -15 -21 -11 -9 3 -15 0 -15 -8 0 -8 6 -17 13 -19 6 -3 -3
-6 -22 -6 -31 -1 -33 1 -17 12 33 24 40 96 33 330 -2 59 -7 110 -10 114 -4 3
-7 -2 -7 -12 0 -14 -3 -15 -15 -5 -12 10 -15 10 -15 -1 0 -9 -3 -10 -8 -3 -4
6 -24 9 -46 6 -26 -3 -34 -7 -25 -13 11 -7 11 -9 -3 -9 -9 0 -18 -4 -20 -8 -1
-4 -24 14 -49 40 l-45 48 217 0 c192 0 219 -2 238 -17z m239 4 c-13 -10 -17
-34 -20 -110 l-3 -97 83 0 82 0 0 93 c0 95 -4 110 -30 120 -8 3 24 6 73 6 l87
1 -17 -26 c-15 -23 -18 -56 -19 -217 -3 -194 4 -236 38 -250 8 -3 6 -6 -5 -6
-9 -1 -30 13 -45 29 l-27 31 -33 -31 c-18 -16 -41 -30 -50 -29 -13 0 -12 3 6
11 22 11 26 33 23 128 -1 19 7 53 19 75 11 21 20 41 20 42 0 2 -13 -3 -30 -12
-38 -20 -153 -20 -170 -1 -6 8 -18 12 -27 9 -11 -4 -12 -8 -2 -13 7 -5 15 -49
20 -111 7 -79 13 -107 26 -116 14 -11 11 -13 -23 -12 -28 0 -34 2 -20 8 16 6
17 9 5 16 -28 18 -79 14 -79 -5 0 -5 8 -11 18 -13 9 -3 -1 -5 -22 -6 -37 -1
-38 0 -20 13 18 14 19 28 19 236 0 208 -1 223 -19 236 -18 12 -10 14 70 14 74
-1 86 -3 72 -13z m-1610 -11 c15 -8 36 -24 47 -37 11 -13 13 -19 5 -12 -8 6
-33 22 -54 37 -42 28 -41 34 2 12z m2767 2 c-11 -6 -35 -25 -53 -42 -21 -20
-31 -25 -26 -13 7 19 71 67 89 67 5 0 1 -6 -10 -12z m440 -8 c3 -5 -1 -10 -10
-10 -9 0 -13 5 -10 10 3 6 8 10 10 10 2 0 7 -4 10 -10z m-396 -4 c-2 -2 -15
-9 -29 -15 -24 -11 -24 -11 -6 3 16 13 49 24 35 12z m-3136 -49 c-11 -12 -30
-40 -41 -62 -12 -22 -21 -36 -22 -32 -1 22 69 129 79 121 3 -2 -5 -14 -16 -27z
m2575 -35 c23 -36 29 -186 9 -235 -9 -21 -23 -37 -32 -37 -9 0 -13 5 -10 10 4
6 -4 5 -19 -1 -14 -7 -23 -16 -20 -20 3 -5 -7 -11 -21 -15 -28 -7 -88 13 -79
27 3 5 -2 9 -11 9 -9 0 -14 -4 -11 -9 4 -5 -3 -7 -13 -4 -32 8 -43 54 -39 157
4 112 18 139 88 165 43 16 47 16 93 -3 27 -10 56 -30 65 -44z m-2387 36 c0 -7
2 -27 5 -45 2 -18 -1 -35 -6 -38 -6 -3 -11 6 -11 22 -1 15 -3 38 -4 51 -1 12
2 22 6 22 5 0 9 -6 10 -12z m2657 1 c-10 -5 -18 -22 -18 -37 -1 -25 -1 -26
-15 -8 -9 12 -29 19 -59 21 l-46 3 0 -64 0 -64 33 0 c17 0 39 -5 47 -10 17
-11 11 -12 -47 -10 l-42 1 10 -35 c6 -20 9 -60 7 -88 -3 -49 -4 -51 -20 -34
-16 16 -20 16 -40 2 -35 -25 -52 -20 -31 8 10 13 21 19 24 14 4 -6 10 -5 15 3
4 7 3 14 -4 17 -8 2 -12 41 -12 128 0 113 1 123 18 118 14 -5 14 -4 2 4 -8 6
-17 9 -20 8 -3 -2 -14 5 -24 15 -19 19 -17 19 110 19 92 -1 124 -3 112 -11z
m-3058 -6 c-8 -3 -24 -10 -35 -15 -20 -9 -20 -9 -1 6 11 9 27 16 35 15 14 0
14 -1 1 -6z m3660 -52 c21 -42 35 -117 23 -124 -4 -3 -9 11 -10 30 -2 42 -18
86 -47 128 -17 25 -17 28 -2 16 9 -8 26 -31 36 -50z m-143 27 c-3 -8 -6 -5 -6
6 -1 11 2 17 5 13 3 -3 4 -12 1 -19z m-180 -20 c-3 -7 -5 -2 -5 12 0 14 2 19
5 13 2 -7 2 -19 0 -25z m-2857 2 c32 -25 24 -25 -26 0 -26 13 -33 19 -19 19
11 0 31 -8 45 -19z m61 -47 c13 -16 12 -17 -3 -4 -10 7 -18 15 -18 17 0 8 8 3
21 -13z m2748 -28 c0 -5 -4 -3 -9 5 -5 8 -9 22 -9 30 0 16 17 -16 18 -35z
m-3032 -2 c-3 -10 -5 -4 -5 12 0 17 2 24 5 18 2 -7 2 -21 0 -30z m178 17 c10
-11 14 -20 9 -20 -5 0 -15 9 -22 20 -7 11 -11 20 -9 20 2 0 12 -9 22 -20z
m-503 -12 c-7 -7 -12 -8 -12 -2 0 14 12 26 19 19 2 -3 -1 -11 -7 -17z m725
-55 c-2 -16 -4 -5 -4 22 0 28 2 40 4 28 2 -13 2 -35 0 -50z m-108 20 c-1 -33
-2 -35 -8 -13 -4 14 -6 31 -3 38 8 22 12 13 11 -25z m2618 -30 c-2 -16 -4 -5
-4 22 0 28 2 40 4 28 2 -13 2 -35 0 -50z m53 -63 c8 -14 6 -18 -7 -16 -13 2
-17 16 -19 72 l-2 69 9 -53 c5 -29 13 -62 19 -72z m-3600 95 c0 -8 -4 -15 -10
-15 -5 0 -7 7 -4 15 4 8 8 15 10 15 2 0 4 -7 4 -15z m637 -32 c-3 -10 -5 -4
-5 12 0 17 2 24 5 18 2 -7 2 -21 0 -30z m293 -17 c0 -3 -4 -8 -10 -11 -5 -3
-10 -1 -10 4 0 6 5 11 10 11 6 0 10 -2 10 -4z m-2030 -76 c0 -3 -12 -6 -26 -5
-30 0 -48 27 -38 57 6 22 8 21 35 -12 16 -19 29 -37 29 -40z m4662 48 c-7 -7
-12 -8 -12 -2 0 6 3 14 7 17 3 4 9 5 12 2 2 -3 -1 -11 -7 -17z m-2785 -30 c-3
-7 -5 -2 -5 12 0 14 2 19 5 13 2 -7 2 -19 0 -25z m3038 23 c3 -5 1 -12 -5 -16
-5 -3 -10 1 -10 9 0 18 6 21 15 7z m-4979 -60 c5 1 22 -1 38 -6 17 -5 31 -4
35 3 3 6 25 -6 51 -29 32 -28 40 -39 27 -39 -10 0 -16 4 -13 9 3 5 -16 6 -42
4 -68 -7 -74 -11 -17 -13 46 -1 48 -2 27 -13 -12 -7 -19 -17 -15 -22 4 -5 -5
-1 -22 9 -43 27 -95 83 -95 104 0 13 2 14 9 4 4 -7 12 -12 17 -11z m5143 -9
c-11 -17 -72 -62 -85 -62 -4 0 11 13 34 29 22 16 43 34 47 40 3 6 8 11 11 11
2 0 -1 -8 -7 -18z m-4989 -102 c-14 -4 -32 -4 -40 -1 -11 3 -8 7 10 11 14 4
32 4 40 1 11 -3 8 -7 -10 -11z m138 -15 c-2 -3 -26 -9 -51 -14 -35 -6 -51 -5
-64 5 -16 12 -9 13 51 14 38 0 67 -2 64 -5z m-8 -36 c-12 -9 -11 -10 8 -6 12
3 20 1 16 -4 -4 -8 17 -14 39 -10 4 0 7 -3 7 -9 0 -5 10 -10 23 -11 12 0 16
-3 10 -6 -7 -2 -32 2 -55 10 -24 9 -56 19 -73 23 l-30 7 25 7 c37 12 47 11 30
-1z m5260 -9 c0 -5 -5 -10 -11 -10 -5 0 -7 5 -4 10 3 6 8 10 11 10 2 0 4 -4 4
-10z m1081 -8 c-19 -3 -21 -6 -10 -13 9 -7 5 -7 -15 -3 -16 4 -27 3 -24 -2 3
-5 -11 -10 -33 -11 -21 -1 -41 2 -45 8 -4 8 1 9 16 4 15 -5 20 -4 16 4 -5 7 6
11 34 11 23 0 39 4 36 9 -3 4 7 6 22 2 27 -5 27 -5 3 -9z m-6576 -21 c-6 -5
-25 10 -25 20 0 5 6 4 14 -3 8 -7 12 -15 11 -17z m1050 19 c3 -5 1 -10 -4 -10
-6 0 -11 5 -11 10 0 6 2 10 4 10 3 0 8 -4 11 -10z m5785 0 c0 -5 -5 -10 -11
-10 -5 0 -7 5 -4 10 3 6 8 10 11 10 2 0 4 -4 4 -10z m-4754 -25 c-11 -8 -25
-15 -30 -15 -6 1 0 7 14 15 32 19 40 18 16 0z m4370 -33 c-10 -2 -22 0 -28 6
-6 6 0 7 19 4 21 -5 23 -7 9 -10z m-6079 2 c-3 -3 -12 -4 -19 -1 -8 3 -5 6 6
6 11 1 17 -2 13 -5z m523 -10 l25 -15 -25 7 c-14 3 -32 10 -40 15 -13 7 -13 8
0 8 8 0 26 -6 40 -15z m5020 -14 c-8 -5 -17 -7 -19 -4 -3 3 1 9 9 14 8 5 17 7
19 4 3 -3 -1 -9 -9 -14z m-2143 -7 c-3 -3 -25 -5 -49 -5 -28 1 -37 -2 -28 -8
9 -6 1 -8 -23 -6 -20 2 -37 -1 -37 -6 0 -5 -5 -6 -10 -3 -19 12 -114 -24 -133
-50 -12 -17 -14 -25 -5 -23 7 2 12 -2 11 -9 -2 -6 6 -15 17 -18 11 -4 20 -11
20 -17 0 -6 -12 -3 -26 7 -19 12 -29 14 -37 6 -8 -8 -8 -11 2 -11 7 0 9 -4 6
-10 -3 -5 5 -12 19 -16 21 -5 23 -10 18 -42 -3 -20 -7 -198 -9 -394 -3 -305
-6 -358 -18 -358 -18 0 -20 37 -2 43 12 5 12 6 -26 60 -10 14 -20 32 -21 39
-2 16 -25 56 -26 45 0 -4 9 -36 21 -70 17 -49 19 -68 11 -92 -6 -16 -13 -64
-17 -105 -3 -41 -10 -79 -15 -84 -15 -15 -13 -173 2 -178 14 -5 -11 -68 -28
-68 -14 0 -18 141 -3 150 8 5 8 18 0 48 -9 33 -15 39 -31 35 -13 -3 -20 0 -20
8 0 11 -2 12 -9 1 -9 -14 -21 110 -21 213 0 42 3 56 10 45 10 -16 14 -8 10 25
-2 16 1 17 13 7 19 -16 25 -2 22 55 -2 29 2 43 12 47 8 3 11 1 8 -4 -3 -6 -1
-10 4 -10 17 0 13 37 -5 44 -9 4 -23 1 -30 -5 -11 -9 -14 -8 -14 5 0 9 -4 16
-10 16 -15 0 -12 -31 5 -50 15 -17 11 -50 -6 -50 -5 0 -10 -15 -11 -32 -1 -18
-5 109 -8 282 -5 306 -6 316 -29 365 -13 28 -24 57 -25 65 -1 8 -11 19 -24 26
-12 6 -37 24 -55 40 -17 16 -39 30 -47 31 -8 0 -33 6 -55 11 -29 7 63 10 334
11 205 0 371 -2 368 -6z m-1675 -154 c-52 -33 -77 -91 -76 -176 0 -80 -3 -77
-45 41 -19 51 -20 60 -7 70 25 19 -3 35 -38 21 -18 -8 -24 -15 -17 -19 8 -5 6
-15 -8 -32 -11 -14 -17 -32 -14 -40 5 -14 2 -14 -42 1 -36 13 -359 5 -373 -8
-8 -9 -13 -61 -15 -175 -2 -156 -3 -162 -23 -162 -11 0 -29 -7 -40 -15 -24
-18 -44 -19 -44 -1 0 12 -7 12 -35 5 -19 -6 -40 -7 -45 -4 -7 4 -10 83 -9 218
1 235 -4 260 -56 283 -25 11 43 13 445 13 l475 1 -33 -21z m489 12 c-8 -5 -19
-7 -25 -5 -16 5 -44 -19 -56 -50 -13 -34 -13 -143 0 -221 10 -62 56 -167 76
-173 6 -1 25 9 43 23 l31 27 28 -21 c30 -21 67 -61 45 -47 -8 4 -13 2 -13 -5
0 -7 10 -9 27 -6 65 12 101 -40 63 -92 -17 -25 -18 -30 -4 -35 9 -3 25 -6 37
-6 16 0 34 -18 66 -67 48 -74 62 -103 85 -183 13 -47 13 -52 1 -36 -13 17 -15
18 -15 3 0 -9 -5 -17 -10 -17 -7 0 -7 -7 0 -21 14 -25 6 -49 -16 -49 -12 0
-15 -5 -9 -22 15 -50 16 -64 2 -82 -12 -16 -15 -7 -26 85 -18 139 -35 176
-121 265 -11 12 -20 24 -20 28 0 4 -7 15 -16 23 -10 10 -14 27 -12 44 5 33
-19 47 -51 29 -28 -15 -47 -50 -32 -60 9 -5 8 -10 -2 -18 -10 -9 -23 -2 -57
33 l-43 44 -34 -54 c-19 -30 -39 -55 -44 -55 -6 0 -7 -4 -4 -10 8 -12 -23 -72
-34 -66 -9 6 -31 -36 -31 -58 0 -8 -6 -26 -14 -40 -11 -22 -15 -24 -20 -11 -3
9 -4 29 0 43 5 27 5 27 -13 -3 -9 -16 -16 -36 -15 -42 2 -7 -3 -13 -10 -14 -7
0 -2 -5 11 -10 18 -7 22 -14 17 -34 -5 -18 -1 -30 14 -42 22 -19 26 -48 9 -58
-6 -4 -8 -13 -5 -21 3 -8 -1 -14 -8 -14 -8 0 -23 -3 -33 -7 -17 -7 -17 -6 0
11 21 21 22 43 3 62 -18 17 -36 18 -36 2 0 -7 -11 -18 -25 -25 -19 -8 -23 -8
-18 0 4 7 8 18 9 27 13 96 58 234 100 305 73 123 65 115 111 115 46 0 61 11
38 30 -8 7 -15 21 -15 30 0 10 -10 27 -23 37 -28 23 -60 72 -63 98 -4 33 -43
151 -43 133 -1 -21 -14 -23 -30 -5 -23 28 -79 146 -95 199 -17 59 -37 84 -76
91 -14 2 74 5 195 5 132 1 214 -2 206 -7z m542 2 c-39 -5 -63 -39 -69 -99 -8
-85 -82 -338 -83 -286 -1 24 -11 28 -28 11 -7 -7 -15 -6 -26 5 -20 21 -31 20
-23 0 9 -23 -3 -54 -20 -54 -8 0 -17 -7 -20 -15 -13 -32 -65 -6 -56 27 5 20
-8 24 -25 7 -7 -7 -1 15 12 48 21 51 25 78 26 179 0 65 -1 128 -3 139 -3 21
-29 38 -38 24 -3 -4 -16 -1 -30 6 -22 13 3 14 195 13 121 -1 206 -3 188 -5z
m990 0 c-18 -2 -33 -8 -33 -14 0 -5 -6 -8 -12 -6 -7 1 -14 -8 -16 -21 -2 -14
-23 -35 -58 -57 -50 -32 -54 -38 -53 -72 0 -37 0 -38 16 -15 17 24 72 31 74
10 0 -7 4 -4 9 7 6 15 9 16 9 4 1 -9 -2 -18 -5 -22 -6 -6 -11 -110 -14 -286
-2 -104 -12 -119 -26 -36 -3 22 -11 43 -17 47 -5 3 -11 18 -13 33 -5 49 -12
59 -30 44 -15 -12 -14 -31 3 -75 4 -12 3 -15 -5 -10 -7 4 -12 2 -12 -3 0 -14
6 -14 31 -1 16 9 19 7 19 -10 0 -11 -4 -20 -9 -20 -5 0 -14 -13 -20 -30 -11
-32 -1 -40 19 -15 6 8 8 20 4 26 -4 8 -3 9 4 5 15 -9 32 -73 25 -92 -3 -8 -19
-18 -35 -21 -36 -7 -42 -21 -34 -78 5 -31 12 -45 23 -45 11 0 13 -5 8 -17 -4
-10 -10 -28 -12 -40 -3 -13 -9 -21 -13 -18 -4 3 -8 -52 -9 -122 -2 -142 -3
-147 -77 -216 -49 -45 -74 -60 -114 -72 -22 -6 -22 -5 5 13 17 10 43 33 57 51
15 17 31 31 37 31 5 0 12 4 15 9 4 5 -2 7 -12 4 -16 -4 -18 0 -14 26 4 27 6
29 29 20 38 -14 51 -10 21 7 -16 8 -28 21 -28 28 0 7 -7 19 -15 26 -13 11 -15
31 -12 107 3 81 7 97 27 118 l24 25 -25 -2 -24 -3 -3 127 c-2 122 -2 127 21
145 12 10 27 25 32 33 7 12 5 12 -11 -1 -45 -37 -44 -39 -44 133 l0 164 29 17
c36 21 41 21 41 2 0 -20 19 -19 27 1 3 10 0 22 -8 28 -8 6 -13 19 -11 29 4 21
-11 22 -32 1 -18 -17 -21 -28 -6 -19 6 3 10 2 10 -4 0 -9 -31 -31 -44 -31 -3
0 -6 16 -6 36 0 24 -4 33 -12 28 -8 -5 -9 -2 -5 9 3 10 2 17 -3 17 -5 0 -12
11 -16 25 -3 14 -9 25 -13 26 -22 2 -44 8 -49 13 -3 3 91 5 209 4 118 0 199
-3 182 -5z m1502 0 c-47 -12 -85 -73 -85 -137 0 -47 -14 -52 -29 -11 -16 44
-58 74 -102 73 -19 -1 -123 2 -231 7 -145 5 -198 5 -198 -4 0 -6 -6 -11 -14
-11 -17 0 -18 -60 -1 -72 6 -4 11 -72 13 -156 l3 -149 -25 4 c-23 5 -26 2 -26
-21 0 -14 -4 -26 -9 -26 -5 0 -14 -27 -20 -60 -9 -54 -8 -65 9 -96 24 -41 25
-60 6 -95 -20 -38 -26 -245 -7 -241 8 2 11 -3 8 -12 -6 -16 17 -46 34 -46 5 0
10 12 10 28 1 22 3 23 6 5 2 -12 16 -33 30 -47 l26 -26 181 0 c99 0 198 5 218
10 25 7 53 28 84 63 l46 52 -7 -40 c-10 -51 -10 -53 0 -94 5 -26 4 -32 -6 -29
-8 3 -13 17 -12 32 l2 27 -22 -32 c-37 -54 -73 -60 -314 -57 -225 3 -246 8
-222 47 11 16 11 23 2 32 -10 10 -15 6 -22 -14 -12 -31 -26 -34 -40 -9 -9 16
-11 16 -24 -2 -22 -29 -30 -3 -22 67 5 53 4 59 -8 48 -16 -13 -38 -11 -49 4
-12 16 -8 68 6 94 12 22 12 28 -3 50 -14 22 -16 72 -20 386 -2 198 -3 368 -3
378 1 9 -3 17 -9 17 -5 0 -9 12 -9 26 0 19 -4 25 -15 20 -8 -3 -15 -1 -15 5 0
6 -4 8 -8 5 -4 -2 -14 -1 -22 5 -9 5 168 8 460 8 261 -1 466 -4 455 -6z
m-1579 -141 c-4 -3 -12 0 -19 7 -9 9 -9 14 3 21 11 7 16 5 18 -6 2 -9 1 -18
-2 -22z m1491 -84 c-3 -7 -5 -2 -5 12 0 14 2 19 5 13 2 -7 2 -19 0 -25z
m-3212 -55 c1 -15 5 -46 9 -68 l6 -40 -15 38 c-8 22 -14 49 -13 60 0 12 -3 31
-7 42 -6 16 -5 18 5 8 7 -7 14 -25 15 -40z m-1525 2 c0 -2 -14 -3 -31 -3 -17
1 -25 4 -18 8 10 7 49 2 49 -5z m-90 -65 c0 -5 -5 -10 -11 -10 -5 0 -7 5 -4
10 3 6 8 10 11 10 2 0 4 -4 4 -10z m169 -22 c0 -28 -2 -30 -9 -13 -12 28 -12
45 0 45 6 0 10 -15 9 -32z m-119 -2 c0 -3 -4 -8 -10 -11 -5 -3 -10 -1 -10 4 0
6 5 11 10 11 6 0 10 -2 10 -4z m-32 -73 c15 -13 23 -23 17 -23 -24 1 -55 39
-54 67 2 26 2 27 6 3 2 -14 16 -35 31 -47z m127 57 c3 -5 1 -10 -4 -10 -6 0
-11 5 -11 10 0 6 2 10 4 10 3 0 8 -4 11 -10z m-61 -40 c-4 -36 3 -37 50 -5
l36 24 0 -29 c0 -16 -4 -32 -10 -35 -5 -3 -10 0 -10 8 0 11 -6 12 -34 3 -33
-10 -34 -12 -31 -52 1 -23 -2 -48 -6 -56 -5 -8 -9 25 -9 80 0 50 4 92 9 92 4
0 7 -13 5 -30z m5246 -5 c0 -19 -4 -35 -8 -35 -4 0 -6 16 -4 35 2 19 6 35 8
35 2 0 4 -16 4 -35z m-81 -67 c-1 -57 -2 -60 -10 -28 -8 32 -3 90 7 90 2 0 4
-28 3 -62z m159 -6 c2 -12 -2 -22 -8 -22 -6 0 -8 5 -5 10 4 6 1 18 -7 27 -11
14 -11 16 2 11 8 -2 16 -14 18 -26z m-1116 -12 c12 -18 24 -20 151 -20 l138 0
46 -35 c25 -19 50 -35 54 -35 5 0 9 -5 9 -11 0 -5 -5 -7 -12 -3 -6 4 -79 6
-162 5 -197 -2 -296 6 -289 25 3 8 -2 17 -11 20 -9 3 -16 10 -16 16 0 5 5 6
10 3 10 -6 40 17 41 31 0 4 -5 11 -13 15 -9 6 -4 9 14 9 17 0 33 -8 40 -20z
m-3518 -5 c15 -12 52 -15 158 -15 127 0 138 -1 148 -20 6 -11 29 -29 50 -40
22 -11 40 -21 40 -23 0 -1 -83 -2 -185 -2 -102 0 -185 -3 -185 -7 0 -10 -54 2
-58 13 -6 15 -72 11 -78 -6 -4 -8 -10 -12 -15 -9 -5 3 -9 -2 -9 -11 0 -9 4
-14 9 -10 5 3 12 1 16 -5 11 -18 25 -10 25 15 0 27 26 35 48 13 15 -15 16
-104 1 -114 -6 -3 -9 -15 -6 -25 4 -13 0 -19 -11 -19 -13 0 -13 -2 3 -13 26
-20 10 -40 -27 -33 l-30 6 23 -19 23 -18 -27 -23 c-16 -14 -29 -38 -33 -64 -8
-41 -8 -41 -15 -11 -4 19 -7 23 -8 10 -2 -33 -34 -102 -53 -114 -17 -11 -18
-2 -18 154 0 141 2 165 15 165 9 0 18 6 21 14 7 19 35 8 33 -13 -1 -9 0 -27 2
-41 1 -14 5 7 8 45 3 39 5 72 4 74 -1 2 -18 -10 -38 -28 -20 -17 -37 -31 -39
-31 -3 0 -2 37 1 83 3 66 8 85 25 100 23 20 54 22 64 5 4 -6 3 -9 -2 -5 -5 3
-14 -5 -20 -17 -8 -17 -7 -25 3 -34 10 -10 13 -10 13 2 0 9 6 13 14 10 8 -3
25 5 38 18 13 13 26 22 31 21 4 -2 7 6 7 17 0 24 8 25 34 5z m4511 -13 c-3 -3
-11 0 -18 7 -9 10 -8 11 6 5 10 -3 15 -9 12 -12z m90 -2 c-3 -5 -12 -10 -18
-10 -7 0 -6 4 3 10 19 12 23 12 15 0z m-5209 -37 c-10 -10 -49 -12 -66 -2 -10
6 0 8 29 9 24 0 41 -3 37 -7z m5142 0 c-10 -2 -26 -2 -35 0 -10 3 -2 5 17 5
19 0 27 -2 18 -5z m-4233 -113 c-3 -5 -17 -10 -31 -10 -14 0 -22 4 -19 10 3 6
17 10 31 10 14 0 22 -4 19 -10z m2889 -274 c-3 -20 -23 -63 -44 -95 -57 -89
-78 -95 -335 -99 -229 -4 -287 5 -293 43 -4 28 56 74 69 54 11 -19 397 -26
461 -9 47 13 106 67 129 119 17 38 22 33 13 -13z m-1857 12 c-3 -8 -6 -5 -6 6
-1 11 2 17 5 13 3 -3 4 -12 1 -19z m-711 -40 c-6 -23 -12 -34 -14 -25 -2 11
-18 -4 -45 -45 -68 -100 -77 -102 -362 -106 -132 -2 -251 0 -265 4 l-25 6 26
10 c27 9 40 32 31 56 -3 10 -15 4 -38 -19 -28 -27 -35 -30 -49 -19 -9 8 -15
25 -13 39 3 23 7 26 35 23 17 -2 41 2 52 8 16 8 21 8 21 -1 0 -7 8 -18 18 -25
22 -17 314 -19 417 -3 39 6 80 12 92 14 22 3 45 24 96 89 15 20 29 36 31 36 2
0 -2 -19 -8 -42z m298 -3 c-4 -8 -8 -15 -10 -15 -2 0 -4 7 -4 15 0 8 4 15 10
15 5 0 7 -7 4 -15z m423 -87 c-2 -18 -4 -6 -4 27 0 33 2 48 4 33 2 -15 2 -42
0 -60z m-1465 40 c-7 -7 -12 -8 -12 -2 0 14 12 26 19 19 2 -3 -1 -11 -7 -17z
m-38 -66 c7 -12 -36 -72 -51 -72 -17 0 -16 2 4 45 16 33 36 45 47 27z m3496
-87 c-17 -21 -90 -58 -98 -51 -3 3 13 14 36 24 23 9 40 22 38 28 -6 17 16 36
28 24 6 -6 4 -15 -4 -25z m735 4 c11 -17 -1 -21 -15 -4 -8 9 -8 15 -2 15 6 0
14 -5 17 -11z m-3298 -16 c4 -10 -26 -27 -34 -20 -2 2 -1 12 3 21 7 18 25 17
31 -1z m293 -14 c41 -29 42 -31 15 -25 -36 9 -75 33 -75 46 0 16 12 12 60 -21z
m270 21 c0 -5 -7 -10 -16 -10 -8 0 -12 5 -9 10 3 6 10 10 16 10 5 0 9 -4 9
-10z m301 -26 c17 -8 28 -18 25 -21 -7 -8 -66 17 -66 28 0 12 6 11 41 -7z
m-1905 -9 c-11 -8 -24 -15 -30 -15 -5 0 -1 7 10 15 10 8 24 14 29 14 6 0 1 -6
-9 -14z m4425 -2 c13 -17 13 -17 -6 -3 -11 8 -22 16 -24 17 -2 2 0 3 6 3 6 0
17 -8 24 -17z m-2876 -3 c-27 -12 -43 -12 -25 0 8 5 22 9 30 9 10 0 8 -3 -5
-9z m-578 -6 c-3 -3 -12 -4 -19 -1 -8 3 -5 6 6 6 11 1 17 -2 13 -5z m1223 -76
c0 -49 -6 -47 -14 5 -3 22 -2 37 4 37 6 0 10 -19 10 -42z m-313 -159 c27 -10
27 -11 8 -22 -19 -10 -201 -11 -237 -1 -25 7 -22 22 5 27 46 9 197 7 224 -4z
m880 -2 c3 -4 3 -10 -1 -14 -11 -12 -239 -20 -253 -10 -37 27 6 36 150 33 53
-2 100 -6 104 -9z m413 3 c-8 -5 -19 -10 -25 -10 -5 0 -3 5 5 10 8 5 20 10 25
10 6 0 3 -5 -5 -10z m-80 -30 c-8 -5 -22 -9 -30 -9 -10 0 -8 3 5 9 27 12 43
12 25 0z m-153 -46 c-3 -3 -12 -4 -19 -1 -8 3 -5 6 6 6 11 1 17 -2 13 -5z
m-407 -749 c-7 -9 -15 -13 -17 -11 -7 7 7 26 19 26 6 0 6 -6 -2 -15z m929 -92
c-2 -57 -3 -61 -8 -28 -6 39 -3 95 5 95 2 0 3 -30 3 -67z m-2288 -215 c-25
-106 -90 -274 -90 -236 -1 22 -7 28 -33 33 -18 4 -52 2 -75 -3 l-43 -10 0 48
c0 47 1 48 34 52 19 2 45 0 57 -4 15 -6 25 -4 34 8 9 13 16 14 32 6 19 -10 23
-7 41 36 11 26 28 80 38 121 11 41 20 65 22 54 2 -12 -6 -59 -17 -105z m2095
-8 c13 0 40 9 61 19 21 11 49 22 61 26 l24 7 -21 -21 c-12 -12 -31 -21 -43
-21 -13 0 -38 -9 -56 -20 l-33 -20 6 -73 c4 -39 11 -88 16 -107 15 -58 9 -58
-12 0 -28 77 -69 249 -68 285 0 27 3 24 21 -22 17 -43 25 -53 44 -53z m194 82
c0 -4 -10 -13 -22 -21 -23 -14 -23 -14 -4 8 20 22 26 25 26 13z m-2516 -436
c-3 -7 -9 -42 -13 -77 l-8 -64 -2 89 c-1 76 1 87 13 76 8 -6 13 -17 10 -24z
m-17 -178 c-3 -8 -6 -5 -6 6 -1 11 2 17 5 13 3 -3 4 -12 1 -19z"/>
<path d="M4390 5091 c8 -5 29 -11 45 -15 l30 -6 -25 15 c-14 8 -34 14 -45 14
-16 0 -17 -1 -5 -8z"/>
<path d="M3225 5085 c-40 -19 -20 -18 30 0 22 8 31 14 20 14 -11 0 -33 -7 -50
-14z"/>
<path d="M2833 4853 c-9 -3 -13 -28 -13 -74 0 -39 -4 -78 -9 -87 -8 -15 -4
-17 37 -17 74 0 121 57 108 128 -5 26 -13 36 -39 45 -34 12 -63 14 -84 5z"/>
<path d="M2966 4817 c3 -10 9 -15 12 -12 3 3 0 11 -7 18 -10 9 -11 8 -5 -6z"/>
<path d="M3227 4805 c-15 -18 -34 -55 -42 -82 -8 -26 -15 -48 -15 -48 0 0 44
0 98 0 l99 0 -9 39 c-5 21 -13 47 -18 57 -10 17 -72 70 -81 68 -2 0 -16 -15
-32 -34z"/>
<path d="M4610 4790 c-8 -5 -23 -7 -33 -4 -10 3 -29 -2 -42 -10 -24 -16 -25
-21 -25 -116 0 -94 1 -100 24 -115 23 -15 56 -11 56 7 0 5 7 2 16 -6 20 -20
27 -20 52 2 17 14 21 33 25 114 4 71 2 100 -7 107 -7 6 -16 8 -19 4 -4 -3 -9
2 -13 11 -7 18 -13 20 -34 6z m4 -143 c-8 -4 -14 -18 -14 -30 0 -20 -2 -19
-18 8 -17 27 -17 32 -4 52 l14 23 18 -23 c15 -18 16 -23 4 -30z"/>
<path d="M386 4491 c13 -14 104 -23 104 -10 0 5 -15 9 -32 9 -18 0 -44 3 -58
6 -19 5 -22 4 -14 -5z"/>
<path d="M3690 4170 c0 -5 5 -10 10 -10 6 0 10 5 10 10 0 6 -4 10 -10 10 -5 0
-10 -4 -10 -10z"/>
<path d="M3875 4151 c-3 -5 -2 -12 3 -15 5 -3 9 1 9 9 0 17 -3 19 -12 6z"/>
<path d="M3895 3809 c-4 -12 -3 -25 3 -31 6 -6 11 1 14 21 5 35 -7 42 -17 10z"/>
<path d="M3760 3761 c0 -5 7 -14 15 -21 16 -14 18 -10 9 14 -6 17 -24 22 -24
7z"/>
<path d="M3854 3588 c2 -16 -1 -28 -5 -28 -5 0 -9 -4 -9 -8 0 -4 17 -7 38 -6
49 2 53 5 17 13 -19 4 -32 14 -37 31 -7 24 -8 24 -4 -2z"/>
<path d="M1949 4035 c-13 -7 -37 -18 -52 -24 -16 -6 -27 -16 -25 -23 3 -8 54
-11 181 -9 201 3 233 8 230 39 -2 14 4 22 20 25 12 2 -57 4 -154 5 -125 0
-182 -4 -200 -13z"/>
<path d="M2940 3681 c0 -5 7 -14 15 -21 8 -7 15 -21 15 -32 0 -17 2 -18 15 -8
13 11 13 15 3 21 -10 7 -10 9 1 9 11 0 10 5 -4 20 -18 20 -45 27 -45 11z"/>
<path d="M3001 3606 c-14 -55 -14 -69 -1 -61 6 3 10 20 10 36 0 17 5 39 10 50
6 11 7 19 2 19 -6 0 -15 -20 -21 -44z"/>
<path d="M3037 3561 c-20 -18 -37 -36 -37 -40 0 -4 13 -17 30 -29 20 -15 28
-18 24 -7 -4 8 -11 15 -17 15 -6 0 2 13 17 29 15 16 26 37 24 47 -3 15 -8 13
-41 -15z"/>
<path d="M3250 4086 c0 -2 7 -7 16 -10 8 -3 12 -2 9 4 -6 10 -25 14 -25 6z"/>
<path d="M4235 4070 c3 -5 10 -10 16 -10 5 0 9 5 9 10 0 6 -7 10 -16 10 -8 0
-12 -4 -9 -10z"/>
<path d="M4371 3858 c0 -16 2 -18 6 -8 3 8 11 18 17 22 7 5 4 8 -6 8 -12 0
-18 -7 -17 -22z"/>
<path d="M4342 3680 c0 -14 2 -19 5 -12 2 6 2 18 0 25 -3 6 -5 1 -5 -13z"/>
<path d="M5220 3662 c0 -22 6 -32 20 -37 11 -3 20 -11 20 -17 0 -6 2 -9 5 -6
5 5 -27 73 -41 87 -2 2 -4 -10 -4 -27z"/>
<path d="M5223 3505 c0 -22 2 -30 4 -17 2 12 2 30 0 40 -3 9 -5 -1 -4 -23z"/>
<path d="M5278 3513 c7 -3 16 -2 19 1 4 3 -2 6 -13 5 -11 0 -14 -3 -6 -6z"/>
<path d="M5410 2990 c0 -5 5 -10 10 -10 6 0 10 5 10 10 0 6 -4 10 -10 10 -5 0
-10 -4 -10 -10z"/>
<path d="M2676 1335 c4 -8 8 -15 10 -15 2 0 4 7 4 15 0 8 -4 15 -10 15 -5 0
-7 -7 -4 -15z"/>
<path d="M3086 5918 c10 -13 20 -25 21 -27 2 -2 3 8 3 22 0 21 -5 27 -22 27
-21 0 -21 0 -2 -22z"/>
<path d="M4692 5935 c4 -4 3 -14 -3 -22 -9 -10 -6 -13 12 -12 13 1 32 -2 42
-6 10 -4 17 -3 17 5 0 6 6 8 13 4 9 -5 9 -4 0 6 -7 8 -21 15 -30 16 -10 1 -27
5 -38 9 -11 5 -17 5 -13 0z"/>
<path d="M2355 5920 c-3 -5 -1 -10 4 -10 6 0 11 5 11 10 0 6 -2 10 -4 10 -3 0
-8 -4 -11 -10z"/>
<path d="M4441 5870 c12 -16 28 -31 36 -34 17 -7 9 9 -20 42 -30 32 -41 27
-16 -8z"/>
<path d="M4600 5838 c0 -4 6 -8 14 -8 8 0 13 -8 12 -17 -1 -14 7 -18 31 -18
49 -1 39 29 -14 41 -24 6 -43 7 -43 2z"/>
<path d="M5521 5004 c13 -16 29 -19 29 -5 0 5 -9 11 -21 14 -16 4 -18 3 -8 -9z"/>
<path d="M6098 4945 c-6 -82 -4 -96 11 -79 5 5 6 43 2 84 l-7 75 -6 -80z"/>
<path d="M1560 4930 c-1 -8 -2 -19 -1 -24 1 -4 -3 -14 -9 -21 -8 -9 -7 -14 4
-18 18 -7 24 10 15 48 -4 17 -8 23 -9 15z"/>
<path d="M1543 4843 c9 -2 23 -2 30 0 6 3 -1 5 -18 5 -16 0 -22 -2 -12 -5z"/>
<path d="M6080 4839 c0 -6 -6 -17 -14 -24 -15 -16 -14 -80 1 -80 6 0 21 8 34
18 13 9 32 23 43 30 17 13 16 15 -20 32 -38 18 -38 19 -14 26 l25 7 -27 1
c-16 1 -28 -4 -28 -10z"/>
<path d="M1538 4813 c-32 -16 -34 -25 -11 -44 15 -12 16 -12 10 4 -4 11 -3 16
3 12 6 -3 10 -13 10 -21 0 -8 6 -14 13 -13 26 3 38 -1 31 -13 -4 -6 -3 -8 2
-5 16 10 15 65 -2 81 -18 19 -20 19 -56 -1z"/>
<path d="M6197 4679 c4 -16 8 -17 14 -7 13 19 11 28 -5 28 -9 0 -12 -7 -9 -21z"/>
<path d="M7272 4658 c-7 -7 -12 -21 -12 -33 0 -12 -6 -27 -12 -34 -11 -11 -9
-11 9 -2 19 9 24 8 33 -8 7 -13 7 -22 0 -26 -15 -9 -12 -25 5 -25 8 0 15 7 15
16 0 8 5 12 10 9 6 -3 10 -1 10 4 0 6 -4 11 -8 11 -4 0 -8 18 -9 40 -3 58 -16
73 -41 48z"/>
<path d="M7194 4479 c12 -8 25 -8 40 -1 18 9 16 11 -19 11 -33 0 -37 -1 -21
-10z"/>
</g>
</svg>
